<svg xmlns="http://www.w3.org/2000/svg" width="272.482" height="272.479" viewBox="0 0 272.482 272.479">
  <g id="box" transform="translate(0 -0.002)">
    <g id="Grupo_2" data-name="Grupo 2" transform="translate(77.699 196.912)">
      <g id="Grupo_1" data-name="Grupo 1">
        <path id="Trazado_1" data-name="Trazado 1" d="M151.321,370a5.322,5.322,0,1,0,5.322,5.322A5.324,5.324,0,0,0,151.321,370Z" transform="translate(-145.999 -370.002)" fill="#fff"/>
      </g>
    </g>
    <g id="Grupo_4" data-name="Grupo 4" transform="translate(0 0.002)">
      <g id="Grupo_3" data-name="Grupo 3">
        <path id="Trazado_2" data-name="Trazado 2" d="M239.561,101.118l31.361-31.361a5.322,5.322,0,0,0-2.194-8.848L192.36,37.337A53.226,53.226,0,0,0,92.194,33.33L3.737,60.913a5.322,5.322,0,0,0-2.179,8.844l32.186,32.186-20.3,33.834a5.322,5.322,0,0,0,2.881,7.787l29.442,9.814v81.852a5.322,5.322,0,0,0,3.453,4.983c18,6.75,84.891,31.837,85.25,31.964a5.3,5.3,0,0,0,3.4.047l.047-.014,95.794-31.931a5.323,5.323,0,0,0,3.639-5.049V151.186l31.4-9.867a5.322,5.322,0,0,0,2.168-8.84Zm-44.781-47.9c0-1.352-.057-2.7-.159-4.046l62.529,19.3L230.6,95.029,187.208,80.568A53.371,53.371,0,0,0,194.781,53.221ZM101.289,39.369a42.574,42.574,0,0,1,82.848,13.852A42.57,42.57,0,0,1,141.562,95.8a42.609,42.609,0,0,1-40.272-56.427ZM15.308,68.454,88.91,45.5a53.658,53.658,0,0,0-.567,7.717,52.9,52.9,0,0,0,5.9,24.357L41.883,95.029Zm10.677,67.11,16.828-28.047L128.263,136l-16.827,28.047ZM130.918,259.482l-74.507-27.94V156.926c58.621,19.437,55.758,18.843,57.39,18.843a5.324,5.324,0,0,0,4.565-2.584l12.552-20.921ZM136.24,127.44,57.276,101.119l43-14.332a53.2,53.2,0,0,0,80.187,2.751l34.743,11.58Zm90.472,103.954-85.15,28.383V148.219L160.428,171.8a5.323,5.323,0,0,0,5.751,1.753l60.532-19.022Zm-60.248-69.086-21.3-26.623L230.6,107.207l26.59,26.59Z" transform="translate(0 -0.002)" fill="#fff"/>
      </g>
    </g>
    <g id="Grupo_6" data-name="Grupo 6" transform="translate(97.793 203.946)">
      <g id="Grupo_5" data-name="Grupo 5">
        <path id="Trazado_3" data-name="Trazado 3" d="M202.785,388l-11.836-4.438a5.322,5.322,0,0,0-3.738,9.966l11.836,4.438A5.322,5.322,0,1,0,202.785,388Z" transform="translate(-183.757 -383.219)" fill="#fff"/>
      </g>
    </g>
    <g id="Grupo_8" data-name="Grupo 8" transform="translate(77.697 219.145)">
      <g id="Grupo_7" data-name="Grupo 7">
        <path id="Trazado_4" data-name="Trazado 4" d="M185.119,424.093l-31.931-11.974a5.322,5.322,0,1,0-3.738,9.966l31.931,11.974a5.322,5.322,0,1,0,3.738-9.966Z" transform="translate(-145.995 -411.779)" fill="#fff"/>
      </g>
    </g>
    <g id="Grupo_10" data-name="Grupo 10" transform="translate(120.274 31.933)">
      <g id="Grupo_9" data-name="Grupo 9">
        <path id="Trazado_5" data-name="Trazado 5" d="M277.659,61.56a5.322,5.322,0,0,0-7.527,0L241.964,89.729l-6.881-6.881a5.322,5.322,0,1,0-7.527,7.527L238.2,101.018a5.323,5.323,0,0,0,7.527,0l31.931-31.931A5.323,5.323,0,0,0,277.659,61.56Z" transform="translate(-225.998 -60.001)" fill="#fff"/>
      </g>
    </g>
  </g>
</svg>
